<svg width="16" height="200" viewBox="0 0 16 200" fill="none" xmlns="http://www.w3.org/2000/svg">
<path d="M7.34465 30.7071C7.73517 31.0976 8.36834 31.0976 8.75886 30.7071L15.1228 24.3431C15.5133 23.9526 15.5133 23.3195 15.1228 22.9289C14.7323 22.5384 14.0991 22.5384 13.7086 22.9289L8.05176 28.5858L2.3949 22.9289C2.00438 22.5384 1.37121 22.5384 0.980689 22.9289C0.590165 23.3195 0.590165 23.9526 0.980689 24.3431L7.34465 30.7071ZM7.05176 -4.94844e-08L7.05176 30L9.05176 30L9.05176 4.94844e-08L7.05176 -4.94844e-08Z" fill="black"/>
<path d="M7.34465 199.707C7.73517 200.098 8.36834 200.098 8.75886 199.707L15.1228 193.343C15.5133 192.953 15.5133 192.319 15.1228 191.929C14.7323 191.538 14.0991 191.538 13.7086 191.929L8.05176 197.586L2.3949 191.929C2.00438 191.538 1.37121 191.538 0.980689 191.929C0.590165 192.319 0.590165 192.953 0.980689 193.343L7.34465 199.707ZM7.05176 169L7.05176 199L9.05176 199L9.05176 169L7.05176 169Z" fill="black"/>
</svg>
