<svg width="15" height="253" viewBox="0 0 15 253" fill="none" xmlns="http://www.w3.org/2000/svg">
<g clip-path="url(#clip0_752_45)">
<path d="M6.79259 30.7071C7.18312 31.0976 7.81628 31.0976 8.20681 30.7071L14.5708 24.3431C14.9613 23.9526 14.9613 23.3195 14.5708 22.9289C14.1802 22.5384 13.5471 22.5384 13.1566 22.9289L7.4997 28.5858L1.84284 22.9289C1.45232 22.5384 0.81916 22.5384 0.428635 22.9289C0.0381112 23.3195 0.0381112 23.9526 0.428635 24.3431L6.79259 30.7071ZM6.4997 0V30H8.4997V8.74228e-08L6.4997 0Z" fill="black"/>
<path d="M6.79259 142.707C7.18312 143.098 7.81628 143.098 8.20681 142.707L14.5708 136.343C14.9613 135.953 14.9613 135.319 14.5708 134.929C14.1802 134.538 13.5471 134.538 13.1566 134.929L7.4997 140.586L1.84284 134.929C1.45232 134.538 0.81916 134.538 0.428635 134.929C0.0381112 135.319 0.0381112 135.953 0.428635 136.343L6.79259 142.707ZM6.4997 112V142H8.4997V112H6.4997Z" fill="black"/>
<path d="M6.79259 252.707C7.18312 253.098 7.81628 253.098 8.20681 252.707L14.5708 246.343C14.9613 245.953 14.9613 245.319 14.5708 244.929C14.1802 244.538 13.5471 244.538 13.1566 244.929L7.4997 250.586L1.84284 244.929C1.45232 244.538 0.81916 244.538 0.428635 244.929C0.0381112 245.319 0.0381112 245.953 0.428635 246.343L6.79259 252.707ZM6.4997 222V252H8.4997V222H6.4997Z" fill="black"/>
</g>
<defs>
<clipPath id="clip0_752_45">
<rect width="15" height="253" fill="white"/>
</clipPath>
</defs>
</svg>
