<svg width="207" height="180" viewBox="0 0 207 180" fill="none" xmlns="http://www.w3.org/2000/svg">
<path d="M114.859 165.403C114.299 165.93 113.985 166.646 113.984 167.392V177.188H119.953V168.553L127.157 161.767C128.273 160.71 128.901 159.281 128.906 157.79V136.808C128.904 134.571 127.96 132.427 126.281 130.845C124.603 129.263 122.327 128.373 119.953 128.371V92.4553C119.953 90.2176 119.01 88.0715 117.331 86.4891C115.652 84.9068 113.375 84.0178 111 84.0178C108.625 84.0178 106.348 84.9068 104.669 86.4891C102.99 88.0715 102.047 90.2176 102.047 92.4553V108.683H99.0625C97.2109 108.685 95.4051 109.226 93.893 110.234C92.3808 111.241 91.2364 112.664 90.6167 114.308H87.125C85.2734 114.31 83.4676 114.851 81.9555 115.859C80.4433 116.866 79.2989 118.289 78.6792 119.933H78.1719C75.0068 119.936 71.9723 121.123 69.7343 123.232C67.4963 125.341 66.2375 128.201 66.2344 131.183V158.566C66.233 159.677 66.5821 160.764 67.2371 161.688L71.7018 167.996C72.03 168.458 72.2045 169.001 72.2031 169.557V177.188H78.1719V169.557C78.174 167.891 77.6505 166.262 76.6678 164.877L72.2031 158.566V131.186C72.2055 129.695 72.8351 128.266 73.9539 127.211C75.0728 126.157 76.5896 125.563 78.1719 125.561V135H84.1406V122.749C84.1406 122.003 84.4551 121.287 85.0147 120.76C85.5744 120.233 86.3335 119.936 87.125 119.936H90.1094V131.186H96.0781V117.124C96.0781 116.378 96.3925 115.662 96.9522 115.135C97.5119 114.608 98.271 114.311 99.0625 114.311H102.047V125.561H108.016V92.4581C108.015 91.7122 108.329 90.9967 108.889 90.469C109.448 89.9413 110.207 89.6446 110.999 89.6442C111.79 89.6439 112.549 89.9398 113.109 90.467C113.669 90.9942 113.984 91.7094 113.984 92.4553V152.165H119.953V133.996C120.745 133.996 121.504 134.292 122.063 134.82C122.623 135.347 122.938 136.063 122.938 136.808V157.79L114.859 165.403Z" fill="#DB7C0F"/>
<path d="M131.891 91.9209C131.891 88.8494 131.128 85.8206 129.664 83.0765C128.2 80.3324 126.074 77.9493 123.458 76.1176C120.842 74.2859 117.807 73.0565 114.597 72.5277C111.386 71.9989 108.089 72.1854 104.968 73.0722C101.848 73.959 98.9911 75.5215 96.626 77.6349C94.261 79.7483 92.4534 82.3538 91.3479 85.2432C90.2424 88.1326 89.8696 91.2257 90.2592 94.2752C90.6489 97.3247 91.7903 100.246 93.5921 102.805L98.5641 99.6919C97.0957 97.6038 96.2458 95.184 96.1023 92.6826C95.9588 90.1813 96.5268 87.6892 97.7478 85.4641C98.9687 83.239 100.798 81.3616 103.047 80.0261C105.296 78.6906 107.882 77.9454 110.539 77.8676C113.196 77.7899 115.827 78.3823 118.159 79.5837C120.491 80.7851 122.441 82.5519 123.806 84.7013C125.171 86.8507 125.902 89.3047 125.924 91.8097C125.945 94.3146 125.256 96.7794 123.928 98.9494L129.091 101.768C130.926 98.774 131.891 95.3779 131.891 91.9209ZM176.656 67.5C181.969 67.5 187.162 66.0155 191.579 63.2341C195.996 60.4527 199.438 56.4994 201.471 51.8742C203.504 47.2489 204.036 42.1594 203 37.2493C201.963 32.3391 199.405 27.8289 195.649 24.2889C191.892 20.7489 187.106 18.3381 181.896 17.3614C176.686 16.3847 171.286 16.886 166.378 18.8018C161.47 20.7177 157.275 23.962 154.324 28.1246C151.372 32.2873 149.797 37.1812 149.797 42.1875C149.805 48.8985 152.637 55.3325 157.673 60.0779C162.708 64.8233 169.535 67.4926 176.656 67.5ZM167.703 59.9484V53.4375C167.705 51.9464 168.335 50.5169 169.454 49.4625C170.573 48.4081 172.09 47.8147 173.672 47.8125H179.641C181.223 47.8147 182.74 48.4081 183.859 49.4625C184.977 50.5169 185.607 51.9464 185.609 53.4375V59.9484C182.817 61.2169 179.756 61.8756 176.656 61.8756C173.556 61.8756 170.496 61.2169 167.703 59.9484ZM176.656 42.1875C175.771 42.1875 174.905 41.9401 174.169 41.4765C173.433 41.013 172.859 40.3541 172.52 39.5832C172.182 38.8123 172.093 37.9641 172.266 37.1457C172.438 36.3274 172.865 35.5757 173.491 34.9857C174.117 34.3957 174.915 33.9939 175.783 33.8311C176.651 33.6683 177.551 33.7518 178.369 34.0711C179.187 34.3905 179.886 34.9312 180.378 35.625C180.87 36.3187 181.133 37.1344 181.133 37.9688C181.131 39.0872 180.659 40.1594 179.82 40.9502C178.981 41.7411 177.843 42.186 176.656 42.1875ZM176.656 22.5C180.769 22.4957 184.791 23.6365 188.218 25.7792C191.645 27.922 194.323 30.9711 195.918 34.5438C197.512 38.1164 197.95 42.0533 197.178 45.8601C196.406 49.6669 194.458 53.1739 191.578 55.9406V53.4375C191.571 51.4039 190.977 49.4104 189.86 47.6705C188.743 45.9306 187.144 44.5097 185.236 43.56C186.324 42.0835 186.962 40.3545 187.081 38.5605C187.2 36.7665 186.796 34.976 185.912 33.3833C185.028 31.7906 183.698 30.4564 182.066 29.5254C180.435 28.5944 178.564 28.1023 176.656 28.1023C174.749 28.1023 172.878 28.5944 171.246 29.5254C169.615 30.4564 168.285 31.7906 167.401 33.3833C166.517 34.976 166.112 36.7665 166.231 38.5605C166.35 40.3545 166.988 42.0835 168.076 43.56C166.168 44.5097 164.57 45.9306 163.453 47.6705C162.336 49.4104 161.742 51.4039 161.734 53.4375V55.9406C158.854 53.1739 156.906 49.6669 156.134 45.8601C155.362 42.0533 155.801 38.1164 157.395 34.5438C158.989 30.9711 161.668 27.922 165.095 25.7792C168.521 23.6365 172.544 22.4957 176.656 22.5ZM45.3438 67.5C50.656 67.5 55.849 66.0155 60.266 63.2341C64.683 60.4527 68.1257 56.4994 70.1586 51.8742C72.1915 47.2489 72.7234 42.1594 71.687 37.2493C70.6507 32.3391 68.0925 27.8289 64.3362 24.2889C60.5798 20.7489 55.794 18.3381 50.5838 17.3614C45.3735 16.3847 39.973 16.886 35.0651 18.8018C30.1572 20.7177 25.9623 23.962 23.011 28.1246C20.0596 32.2873 18.4844 37.1812 18.4844 42.1875C18.4923 48.8985 21.3246 55.3325 26.36 60.0779C31.3954 64.8233 38.2226 67.4926 45.3438 67.5ZM45.3438 22.5C49.4755 22.5 53.5145 23.6547 56.95 25.818C60.3854 27.9812 63.063 31.056 64.6442 34.6534C66.2253 38.2509 66.639 42.2094 65.833 46.0284C65.0269 49.8474 63.0373 53.3553 60.1157 56.1087C57.194 58.862 53.4717 60.7371 49.4193 61.4967C45.3669 62.2564 41.1665 61.8665 37.3493 60.3764C33.532 58.8863 30.2693 56.3629 27.9738 53.1253C25.6783 49.8877 24.4531 46.0813 24.4531 42.1875C24.4594 36.9679 26.6624 31.9638 30.5788 28.2729C34.4952 24.5821 39.8052 22.506 45.3438 22.5Z" fill="#DB7C0F"/>
<path d="M45.3438 50.625C44.5522 50.625 43.7932 50.3287 43.2335 49.8012C42.6738 49.2738 42.3594 48.5584 42.3594 47.8125H36.3906C36.3961 49.5518 36.9728 51.2469 38.0415 52.665C39.1102 54.0831 40.6186 55.1546 42.3594 55.7325V59.0625H48.3281V55.7325C50.3178 55.072 51.9952 53.7693 53.0632 52.055C54.1313 50.3407 54.5212 48.3255 54.1637 46.3663C53.8063 44.4071 52.7246 42.6304 51.1103 41.3507C49.496 40.0711 47.4532 39.3712 45.3438 39.375C44.7535 39.375 44.1765 39.21 43.6857 38.901C43.1949 38.5919 42.8124 38.1527 42.5865 37.6388C42.3607 37.1248 42.3016 36.5593 42.4167 36.0138C42.5319 35.4682 42.8161 34.9671 43.2335 34.5737C43.6509 34.1804 44.1826 33.9125 44.7615 33.804C45.3404 33.6955 45.9405 33.7512 46.4858 33.9641C47.0311 34.1769 47.4972 34.5374 47.8252 34.9999C48.1531 35.4624 48.3281 36.0062 48.3281 36.5625H54.2969C54.2903 34.8237 53.7132 33.1294 52.6446 31.712C51.576 30.2945 50.0682 29.2233 48.3281 28.6453V25.3125H42.3594V28.6425C40.3697 29.3029 38.6923 30.6056 37.6242 32.3199C36.5562 34.0342 36.1663 36.0494 36.5238 38.0086C36.8812 39.9678 37.9629 41.7446 39.5772 43.0242C41.1915 44.3038 43.2343 45.0037 45.3438 45C46.1353 45 46.8943 45.2963 47.454 45.8237C48.0137 46.3512 48.3281 47.0665 48.3281 47.8125C48.3281 48.5584 48.0137 49.2738 47.454 49.8012C46.8943 50.3287 46.1353 50.625 45.3438 50.625ZM120.568 49.7868L120.592 46.9772C121.766 46.4761 122.894 45.8844 123.964 45.2081L124.263 45.2531L126.841 46.6087C127.397 46.9015 128.037 47.019 128.668 46.9441C129.3 46.8692 129.889 46.6058 130.351 46.1925C133.916 43.0087 136.479 38.9589 137.758 34.4897C137.93 33.8847 137.882 33.2431 137.623 32.6664C137.365 32.0896 136.909 31.6109 136.328 31.3059L133.642 29.8912C133.702 29.2987 133.732 28.71 133.732 28.125C133.732 27.54 133.702 26.9512 133.642 26.3587L136.328 24.944C136.908 24.6393 137.362 24.1615 137.621 23.586C137.88 23.0104 137.928 22.37 137.758 21.7659C136.486 17.2924 133.927 13.2374 130.363 10.049C129.9 9.63702 129.31 9.37457 128.679 9.29973C128.047 9.22489 127.407 9.34154 126.85 9.63278L124.257 10.9968L125.716 13.4522L123.964 11.0418C122.867 10.3651 121.733 9.74183 120.568 9.17434V6.45184C120.568 5.83275 120.351 5.23092 119.951 4.7397C119.552 4.24848 118.991 3.89532 118.356 3.73497C115.842 3.10554 113.249 2.79623 110.648 2.81528C108.281 2.85072 105.928 3.16343 103.644 3.74622C103.009 3.90657 102.448 4.25973 102.049 4.75095C101.649 5.24217 101.432 5.844 101.432 6.46309L101.402 9.27278C100.23 9.7743 99.1045 10.366 98.0359 11.0418L97.7374 10.9968L95.1589 9.64122C94.603 9.34977 93.963 9.23299 93.3318 9.30785C92.7007 9.38271 92.1113 9.6453 91.6493 10.0575C88.0839 13.2412 85.5206 17.291 84.2421 21.7603C84.0703 22.3652 84.1176 23.0069 84.3765 23.5836C84.6355 24.1603 85.0912 24.6391 85.6716 24.944L88.3576 26.3587C88.2979 26.9512 88.268 27.54 88.268 28.125C88.268 28.71 88.2979 29.2987 88.3576 29.8912L85.6716 31.3059C85.0925 31.6106 84.6375 32.0885 84.3786 32.664C84.1198 33.2395 84.0717 33.8799 84.2421 34.484C85.5122 38.9575 88.0706 43.0127 91.6344 46.2009C92.0959 46.6139 92.6853 46.877 93.3167 46.9519C93.9481 47.0267 94.5884 46.9095 95.144 46.6172L97.7404 45.2531L98.0389 45.2081C99.1349 45.8855 100.268 46.5088 101.432 47.0756V49.7981C101.432 50.4172 101.649 51.019 102.049 51.5102C102.448 52.0014 103.009 52.3546 103.644 52.515C106.037 53.1235 108.506 53.4336 110.985 53.4375L111.349 53.4347C113.717 53.3994 116.071 53.0867 118.356 52.5037C118.991 52.3434 119.552 51.9902 119.951 51.499C120.351 51.0078 120.568 50.4059 120.568 49.7868ZM114.599 47.0756V47.5256C113.501 47.7022 112.389 47.7972 111.275 47.8097C109.977 47.8349 108.68 47.7417 107.401 47.5312V47.0756C107.406 45.9773 107.075 44.9009 106.449 43.9748C105.822 43.0487 104.926 42.3121 103.867 41.8528C102.998 41.4841 102.163 41.0466 101.372 40.545C100.406 39.9494 99.2854 39.6155 98.1316 39.5798C96.9779 39.5441 95.836 39.8079 94.8307 40.3425L94.2606 40.6434C92.7606 38.9912 91.5652 37.1136 90.7242 35.0887L93.052 33.8625C93.598 33.5736 94.034 33.1304 94.2985 32.5956C94.563 32.0607 94.6427 31.461 94.5263 30.8812C94.1372 29.062 94.1372 27.1879 94.5263 25.3687C94.6424 24.7886 94.5623 24.1887 94.2972 23.6538C94.0322 23.1189 93.5956 22.6759 93.049 22.3875L90.7242 21.1612C91.5705 19.1389 92.7698 17.2643 94.2726 15.615L94.8277 15.9075C95.8312 16.4436 96.972 16.7088 98.1249 16.6741C99.2778 16.6394 100.398 16.306 101.363 15.7106C102.156 15.2074 102.993 14.768 103.864 14.3972C104.924 13.9386 105.821 13.2022 106.448 12.276C107.075 11.3498 107.406 10.273 107.401 9.17434V8.72434C108.498 8.54787 109.609 8.45289 110.722 8.44028C112.021 8.41531 113.319 8.50855 114.599 8.71872V9.17434C114.595 10.2725 114.926 11.3486 115.552 12.2746C116.179 13.2005 117.074 13.9373 118.133 14.3972C119.001 14.7671 119.836 15.2045 120.628 15.705C121.594 16.3011 122.716 16.6353 123.87 16.671C125.024 16.7067 126.167 16.4426 127.172 15.9075L127.739 15.6093C129.24 17.2602 130.435 19.1369 131.276 21.1612L128.948 22.3875C128.402 22.6764 127.966 23.1195 127.702 23.6544C127.437 24.1893 127.357 24.7889 127.474 25.3687C127.863 27.1879 127.863 29.062 127.474 30.8812C127.358 31.4613 127.438 32.0612 127.703 32.5961C127.968 33.131 128.404 33.574 128.951 33.8625L131.276 35.0887C130.43 37.111 129.23 38.9856 127.727 40.635L127.172 40.3425C126.168 39.8085 125.028 39.5445 123.875 39.5792C122.723 39.6139 121.603 39.946 120.637 40.5393C119.841 41.0422 119.003 41.4815 118.13 41.8528C117.072 42.313 116.177 43.05 115.551 43.9759C114.925 44.9018 114.595 45.9778 114.599 47.0756Z" fill="#DB7C0F"/>
<path d="M110.999 16.875C108.638 16.875 106.33 17.5348 104.367 18.771C102.404 20.0071 100.874 21.7641 99.9704 23.8198C99.0669 25.8755 98.8305 28.1375 99.2911 30.3198C99.7517 32.5021 100.889 34.5066 102.558 36.08C104.228 37.6533 106.355 38.7248 108.67 39.1588C110.986 39.5929 113.386 39.3701 115.567 38.5186C117.749 37.6672 119.613 36.2252 120.925 34.3752C122.237 32.5251 122.937 30.35 122.937 28.125C122.934 25.1422 121.675 22.2825 119.437 20.1733C117.199 18.0642 114.164 16.878 110.999 16.875ZM110.999 33.75C109.819 33.75 108.665 33.4201 107.683 32.802C106.702 32.1839 105.937 31.3054 105.485 30.2776C105.033 29.2498 104.915 28.1188 105.145 27.0276C105.375 25.9365 105.944 24.9342 106.779 24.1475C107.613 23.3609 108.677 22.8251 109.835 22.6081C110.993 22.391 112.193 22.5024 113.283 22.9282C114.374 23.3539 115.306 24.0749 115.962 24.9999C116.618 25.9249 116.968 27.0125 116.968 28.125C116.966 29.6162 116.336 31.0456 115.217 32.1C114.098 33.1544 112.581 33.7478 110.999 33.75ZM108.015 56.25H113.984V70.3125H108.015V56.25ZM127.157 72.6919L150.465 56.7844L153.962 61.3406L130.654 77.2481L127.157 72.6919ZM68.0361 61.3406L71.5368 56.7844L94.8448 72.6919L91.3411 77.2481L68.0361 61.3406Z" fill="#DB7C0F"/>
</svg>
