<svg width="207" height="180" viewBox="0 0 207 180" fill="none" xmlns="http://www.w3.org/2000/svg">
<path d="M53.0965 49.9433L60.0715 52.7741C63.0903 53.997 64.4465 55.0333 64.4465 57.1732C64.4465 60.2945 61.9028 61.7405 57.7028 61.7405C55.5292 61.7029 53.3778 61.3049 51.3403 60.5635C50.8024 60.3656 50.2236 60.298 49.6533 60.3666C49.083 60.4351 48.5381 60.6377 48.0652 60.957C47.5923 61.2763 47.2054 61.7029 46.9377 62.2003C46.67 62.6977 46.5293 63.2511 46.5278 63.8132C46.5155 64.4572 46.6906 65.0913 47.0325 65.6417C47.3744 66.1921 47.8691 66.6362 48.459 66.9222C50.8088 67.9289 53.3142 68.5437 55.8715 68.7412V72.7979C55.8715 73.3176 56.0826 73.816 56.4582 74.1835C56.8339 74.551 57.3434 74.7575 57.8746 74.7575H61.0871C61.6179 74.7567 62.1266 74.5499 62.5015 74.1825C62.8765 73.8151 63.0871 73.3171 63.0871 72.7979V68.1634C65.8328 67.6454 68.2973 66.1811 70.0331 64.0365C71.7689 61.8919 72.6607 59.2094 72.5465 56.4762C72.5465 51.0408 69.4215 48.1488 64.4465 46.125L57.884 43.4073C55.1653 42.3067 53.8059 41.3224 53.8059 39.1824C53.8059 36.2904 56.3496 34.8444 61.0184 34.8444C62.6389 34.8579 64.2464 35.1294 65.7778 35.6485C66.2627 35.8237 66.7797 35.8979 67.2956 35.8663C67.8115 35.8347 68.315 35.6979 68.7737 35.4647C69.2324 35.2316 69.6363 34.9072 69.9593 34.5124C70.2824 34.1176 70.5175 33.6611 70.6496 33.1722C70.8747 32.3042 70.7617 31.3852 70.3326 30.5942C69.9034 29.8031 69.1888 29.1965 68.3278 28.8923C66.6361 28.3219 64.8752 27.9714 63.0903 27.8499V24.3098C63.0903 23.7906 62.8796 23.2926 62.5047 22.9252C62.1297 22.5578 61.621 22.351 61.0903 22.3502H57.8778C57.3465 22.3502 56.837 22.5567 56.4613 22.9242C56.0857 23.2917 55.8746 23.7901 55.8746 24.3098V28.3696C53.0759 28.7864 50.5186 30.1599 48.657 32.2464C46.7953 34.3328 45.7498 36.9972 45.7059 39.7663C45.6015 42.0259 46.2722 44.2548 47.6113 46.0988C48.9504 47.9427 50.8811 49.2959 53.0965 49.9433Z" fill="#DB7C0F"/>
<path d="M80.1686 95.1359H42.3154V101.25H80.1686V95.1359Z" fill="#DB7C0F"/>
<path d="M80.1652 116.755H30.0996V122.87H80.1652V116.755Z" fill="#DB7C0F"/>
<path d="M80.1686 138.375H42.3154V144.489H80.1686V138.375Z" fill="#DB7C0F"/>
<path d="M194.375 83.5098V68.1602C194.376 67.6926 194.266 67.2311 194.055 66.8114C193.845 66.3916 193.538 66.0248 193.16 65.7391C192.78 65.4561 192.34 65.2607 191.873 65.1676C191.405 65.0744 190.922 65.0858 190.46 65.201L179.863 67.9126C175.744 63.1064 170.656 59.1834 164.916 56.3892C159.177 53.595 152.91 51.9896 146.507 51.6735V35.147C146.506 34.3363 146.177 33.5588 145.591 32.9857L113.822 1.92587C113.236 1.35252 112.442 1.03032 111.613 1.03015H13.791C12.9622 1.03015 12.1674 1.35223 11.5813 1.92554C10.9953 2.49886 10.666 3.27643 10.666 4.08722V167.772C10.666 168.582 10.9953 169.36 11.5813 169.933C12.1674 170.507 12.9622 170.829 13.791 170.829H143.366C144.195 170.829 144.99 170.507 145.576 169.933C146.162 169.36 146.491 168.582 146.491 167.772V143.45C152.659 143.131 158.701 141.624 164.271 139.014C169.842 136.405 174.83 132.745 178.95 128.244L190.444 131.185C190.703 131.249 190.968 131.282 191.235 131.283C192.064 131.283 192.858 130.96 193.444 130.387C194.031 129.814 194.36 129.036 194.36 128.225V112.876C197.689 112.174 200.673 110.379 202.814 107.788C204.956 105.198 206.127 101.968 206.132 98.6361V97.7465C206.127 94.4174 204.958 91.1901 202.82 88.6004C200.681 86.0107 197.701 84.2144 194.375 83.5098ZM174.21 75.6776V120.693L143.625 112.885V83.5006L174.21 75.6776ZM114.754 11.4792L135.835 32.1022H114.738L114.754 11.4792ZM16.916 164.715V7.14428H108.479V35.147C108.479 35.9578 108.808 36.7354 109.394 37.3087C109.98 37.882 110.775 38.2041 111.604 38.2041H140.232V51.7163C128.441 52.6371 117.436 57.8657 109.406 66.3623C101.376 74.8589 96.9092 86.0008 96.8941 97.5723C96.8879 103.744 98.1637 109.852 100.644 115.526L94.2879 141.08C94.1786 141.531 94.1752 141.999 94.2781 142.451C94.3809 142.903 94.5873 143.326 94.8816 143.688C95.1759 144.051 95.5504 144.343 95.977 144.543C96.4036 144.743 96.871 144.846 97.3441 144.844C97.5626 144.844 97.7805 144.821 97.9941 144.776L124.244 139.31C129.282 141.588 134.695 142.967 140.229 143.382V164.715H16.916ZM143.954 137.464C137.733 137.463 131.597 136.058 126.022 133.358C125.394 133.054 124.679 132.966 123.994 133.111L101.563 137.791L106.991 115.951C107.155 115.289 107.088 114.591 106.8 113.97C104.4 108.818 103.159 103.222 103.16 97.56C103.162 89.6316 105.577 81.8833 110.098 75.3032C114.62 68.7231 121.042 63.6094 128.546 60.6141C136.05 57.6188 144.296 56.8776 152.232 58.4851C160.168 60.0926 167.435 63.9759 173.107 69.6399L140.094 78.0835H135.094C130.869 78.0883 126.818 79.7325 123.83 82.6553C120.842 85.5782 119.162 89.541 119.157 93.6745V102.714C119.162 106.848 120.843 110.81 123.831 113.733C126.819 116.655 130.869 118.3 135.094 118.305H140.094L172.063 126.486C164.483 133.544 154.418 137.479 143.954 137.473V137.464ZM137.391 112.179H135.113C132.544 112.179 130.08 111.18 128.263 109.403C126.446 107.626 125.425 105.215 125.425 102.702V93.6715C125.425 91.158 126.446 88.7475 128.263 86.9703C130.08 85.193 132.544 84.1946 135.113 84.1946H137.391V112.179ZM188.125 124.267L180.46 122.307V74.0787L188.125 72.1191V124.267ZM199.897 98.6361C199.896 100.342 199.368 102.008 198.383 103.416C197.397 104.824 196.001 105.908 194.375 106.526V89.8562C196 90.4755 197.396 91.5598 198.382 92.9674C199.367 94.375 199.895 96.0406 199.897 97.7465V98.6361Z" fill="#DB7C0F"/>
</svg>
