<svg width="207" height="180" viewBox="0 0 207 180" fill="none" xmlns="http://www.w3.org/2000/svg">
<path d="M103.498 29.2627C100.085 29.2627 96.7486 30.319 93.9109 32.2981C91.0732 34.2773 88.8615 37.0903 87.5555 40.3814C86.2494 43.6726 85.9077 47.2941 86.5735 50.7879C87.2393 54.2818 88.8828 57.4911 91.296 60.0101C93.7093 62.529 96.784 64.2445 100.131 64.9394C103.479 65.6344 106.948 65.2777 110.101 63.9145C113.254 62.5512 115.949 60.2427 117.845 57.2807C119.741 54.3187 120.754 50.8364 120.754 47.2741C120.748 42.4988 118.929 37.9206 115.694 34.544C112.459 31.1674 108.073 29.268 103.498 29.2627ZM103.498 58.5253C101.364 58.5253 99.2787 57.8649 97.5049 56.6275C95.731 55.3902 94.3486 53.6315 93.5324 51.574C92.7163 49.5165 92.5031 47.2525 92.9198 45.0685C93.3365 42.8845 94.3643 40.8785 95.8734 39.3044C97.3824 37.7302 99.3049 36.6585 101.398 36.2248C103.49 35.7912 105.659 36.0151 107.63 36.8683C109.6 37.7214 111.284 39.1654 112.469 41.0176C113.653 42.8699 114.285 45.0472 114.283 47.2741C114.28 50.2588 113.143 53.1202 111.121 55.2307C109.099 57.3412 106.357 58.5218 103.498 58.5253ZM206.424 169.869L197.172 107.515V70.7423C197.167 67.6344 196.167 64.6174 194.331 62.1704C192.495 59.7233 189.929 57.9864 187.04 57.2354V49.7121C190.552 47.4862 193.362 44.2342 195.121 40.3586V40.3045C196.44 37.4209 197.132 34.2682 197.146 31.0726C197.15 26.1273 195.545 21.3272 192.594 17.4581C189.644 13.589 185.522 10.88 180.904 9.77456C176.286 8.66916 171.445 9.23282 167.174 11.3733C162.903 13.5138 159.455 17.1042 157.394 21.557C157.348 21.6245 157.323 21.7056 157.277 21.7799C155.025 26.6466 154.605 32.2188 156.102 37.3931C157.598 42.5674 160.902 46.9664 165.358 49.7188V58.7549C164.815 59.0788 164.294 59.4421 163.799 59.8422L148.452 72.6738H142.124C142.675 71.2111 142.799 69.6111 142.48 68.0752C142.161 66.5393 141.413 65.1363 140.332 64.0429L138.993 62.6382H140.882C142.981 62.6346 144.993 61.7612 146.476 60.2099C147.958 58.6586 148.79 56.5564 148.789 54.3652V40.183C148.785 37.9941 147.95 35.8961 146.467 34.349C144.983 32.8019 142.973 31.9321 140.876 31.9303H138.986L140.326 30.5323C141.061 29.7659 141.644 28.8557 142.041 27.854C142.439 26.8522 142.644 25.7784 142.644 24.694C142.644 23.6095 142.439 22.5357 142.041 21.5339C141.644 20.5322 141.061 19.622 140.326 18.8556L130.73 8.82675C129.247 7.279 127.235 6.40958 125.137 6.40958C123.039 6.40958 121.027 7.279 119.544 8.82675L118.198 10.2315V8.25271C118.196 6.06567 117.363 3.96862 115.882 2.42152C114.401 0.874419 112.393 0.00357578 110.298 0H96.7106C94.6142 0.00178848 92.6041 0.871843 91.1217 2.41914C89.6394 3.96643 88.8058 6.0645 88.8041 8.25271V10.2315L87.4583 8.82675C85.9737 7.28066 83.9621 6.41237 81.8649 6.41237C79.7677 6.41237 77.7561 7.28066 76.2715 8.82675L66.6698 18.8489C65.9341 19.6148 65.3503 20.5248 64.952 21.5267C64.5537 22.5285 64.3487 23.6025 64.3487 24.6872C64.3487 25.7719 64.5537 26.8459 64.952 27.8477C65.3503 28.8496 65.9341 29.7596 66.6698 30.5256L68.0092 31.9303H66.1199C64.024 31.932 62.0143 32.801 60.531 34.3466C59.0478 35.8922 58.2121 37.9886 58.2069 40.1762V54.3584C58.2087 56.5484 59.0429 58.6482 60.5265 60.1968C62.0101 61.7454 64.0218 62.6161 66.1199 62.6179H68.0092L66.6698 64.0159C65.5879 65.1104 64.8404 66.5146 64.5215 68.0516C64.2025 69.5887 64.3265 71.1898 64.8776 72.6535H58.5499L43.1963 59.822C42.7038 59.4219 42.1849 59.0585 41.6435 58.7347V49.7121C46.1046 46.9557 49.4095 42.5489 50.9018 37.3668C52.3941 32.1847 51.9646 26.6063 49.6987 21.7393C49.6987 21.6853 49.647 21.6245 49.6146 21.5705C48.452 18.9562 46.8047 16.6082 44.7678 14.6622C42.7309 12.7161 40.3449 11.2105 37.7474 10.2324C35.15 9.25426 32.3926 8.82294 29.6346 8.96335C26.8766 9.10376 24.1725 9.81312 21.6786 11.0505C19.1847 12.2878 16.9503 14.0286 15.1045 16.1723C13.2588 18.316 11.8382 20.8202 10.9248 23.5402C10.0114 26.2602 9.62338 29.1421 9.78305 32.0195C9.94271 34.8969 10.6469 37.7128 11.8551 40.3045V40.3586C13.6145 44.2342 16.4242 47.4862 19.9362 49.7121V57.2422C17.0469 57.9932 14.4808 59.7301 12.6451 62.1771C10.8094 64.6242 9.80951 67.6411 9.80403 70.7491V107.515L0.564704 169.91C0.301176 172.115 0.848657 174.343 2.09672 176.143C3.34477 177.943 5.20054 179.183 7.28968 179.611C9.37883 180.04 11.5459 179.625 13.3538 178.451C15.1616 177.278 16.4758 175.432 17.0311 173.287L30.1202 129.74L35.0116 135.346L30.9225 169.633C30.8378 170.078 30.7987 170.53 30.806 170.984C30.7855 173.169 31.535 175.285 32.9121 176.931C34.2892 178.576 36.1977 179.636 38.2747 179.909C40.3517 180.182 42.4523 179.648 44.1769 178.41C45.9015 177.171 47.1299 175.314 47.6283 173.192L55.9359 138.966C56.6181 136.146 56.4532 133.175 55.4636 130.456L46.7095 107.137V90.7257L51.6721 94.609C52.2321 95.0473 52.9132 95.2843 53.6132 95.2843H66.2816C68.7899 95.2796 71.2192 94.368 73.1561 92.7045C75.093 91.0411 76.418 88.7286 76.9056 86.1604C78.4011 87.4689 80.3101 88.1489 82.26 88.0678C84.2099 87.9866 86.0609 87.1501 87.4519 85.7214L88.7976 84.3167V86.2955C88.7993 88.4825 89.632 90.5796 91.113 92.1267C92.594 93.6738 94.6024 94.5446 96.6976 94.5482H110.285C112.381 94.5464 114.391 93.6763 115.874 92.129C117.356 90.5817 118.19 88.4837 118.191 86.2955V84.3167L119.537 85.7214C120.927 87.1515 122.779 87.9889 124.729 88.0701C126.679 88.1513 128.588 87.4704 130.083 86.1604C130.572 88.7273 131.898 91.0383 133.835 92.7004C135.771 94.3625 138.2 95.2732 140.707 95.2775H153.376C154.076 95.2775 154.757 95.0406 155.317 94.6022L160.279 90.719V107.13L151.532 130.463C150.54 133.179 150.375 136.148 151.06 138.966L159.367 173.212C159.866 175.336 161.096 177.195 162.822 178.433C164.549 179.672 166.652 180.204 168.731 179.929C170.809 179.654 172.718 178.59 174.093 176.94C175.469 175.291 176.215 173.17 176.189 170.984C176.2 170.613 176.174 170.241 176.112 169.876L171.984 135.346L176.875 129.734L189.887 172.956C190.367 175.16 191.643 177.087 193.449 178.334C195.256 179.581 197.454 180.052 199.585 179.65C201.716 179.248 203.617 178.003 204.891 176.175C206.165 174.347 206.714 172.076 206.424 169.836V169.869ZM45.3055 31.0658C45.3181 33.9784 44.5217 36.8322 43.0126 39.2821C41.5035 41.732 39.3465 43.6728 36.8026 44.8697C34.2588 46.0665 31.4371 46.4682 28.6791 46.0259C25.9211 45.5837 23.345 44.3165 21.2626 42.3778H23.2036C24.0616 42.3778 24.8845 42.0221 25.4912 41.3888C26.0979 40.7556 26.4387 39.8967 26.4387 39.0011V31.1941L44.8267 27.392C45.1317 28.5911 45.2925 29.8252 45.3055 31.0658ZM35.1669 52.4675V56.8167C35.0569 56.8167 34.9534 56.8167 34.8434 56.8167H26.4322V52.4945C29.3118 53.1529 32.2938 53.1529 35.1733 52.4945L35.1669 52.4675ZM17.0506 35.6312C16.5769 34.1613 16.3259 32.6232 16.3065 31.0726C16.2948 27.9926 17.1872 24.9827 18.8638 22.4481C20.5404 19.9135 22.9207 17.9759 25.6842 16.8959C28.4477 15.816 31.4618 15.6456 34.3209 16.4077C37.18 17.1698 39.7468 18.8278 41.6758 21.1585L22.5696 25.1093C21.8388 25.265 21.1821 25.6794 20.7105 26.2824C20.2389 26.8855 19.9814 27.64 19.9815 28.4185V35.6244L17.0506 35.6312ZM10.7745 171.537C10.4187 173.239 7.88887 173.003 7.42302 172.436C7.24369 172.224 7.1099 171.974 7.03066 171.704C6.95143 171.434 6.92857 171.149 6.96365 170.869L15.8342 111.114H28.9297L10.7745 171.537ZM49.427 132.908C49.9339 134.316 50.0152 135.853 49.6599 137.311L41.3523 171.537C41.1783 172.016 40.8482 172.416 40.42 172.667C39.9918 172.917 39.4928 173.003 39.0105 172.908C38.5281 172.812 38.0932 172.543 37.782 172.147C37.4708 171.751 37.3032 171.253 37.3085 170.74L41.6176 134.664C41.6772 134.179 41.6352 133.686 41.4944 133.219C41.3536 132.753 41.1175 132.324 40.8023 131.962L32.3912 122.291L35.7362 111.162H41.2941L49.427 132.908ZM58.2069 88.5241H54.6872L35.2769 73.3289C34.937 73.0628 34.5502 72.8692 34.1387 72.7592C33.7272 72.6491 33.2989 72.6247 32.8783 72.6875C32.4578 72.7502 32.0531 72.8987 31.6876 73.1247C31.322 73.3506 31.0027 73.6495 30.7478 74.0042C30.4929 74.359 30.3074 74.7626 30.202 75.1922C30.0965 75.6218 30.0732 76.0688 30.1333 76.5078C30.1934 76.9468 30.3357 77.3691 30.5521 77.7507C30.7686 78.1322 31.0549 78.4656 31.3948 78.7316L40.3947 85.7687C40.3063 86.0371 40.252 86.3163 40.233 86.5994V104.381H16.2935V70.7423C16.297 68.8341 17.0247 67.005 18.3175 65.6557C19.6102 64.3063 21.3625 63.5467 23.1907 63.5431H34.8369C36.4033 63.5454 37.9225 64.1026 39.146 65.1234L55.386 78.6776C55.9612 79.1562 56.6755 79.4158 57.4111 79.4137H58.2069V88.5241ZM66.2752 88.5241H64.6771V79.407H66.2752C67.4335 79.407 68.5443 79.8872 69.3633 80.7421C70.1824 81.597 70.6425 82.7565 70.6425 83.9655C70.6425 85.1745 70.1824 86.334 69.3633 87.1889C68.5443 88.0438 67.4335 88.5241 66.2752 88.5241ZM135.751 70.9111L126.143 80.9467C126.01 81.086 125.851 81.1965 125.677 81.2719C125.503 81.3472 125.316 81.386 125.127 81.386C124.939 81.386 124.752 81.3472 124.578 81.2719C124.403 81.1965 124.245 81.086 124.112 80.9467L117.24 73.7813C116.788 73.3079 116.211 72.9853 115.583 72.8545C114.954 72.7237 114.303 72.7906 113.711 73.0467C113.119 73.3027 112.614 73.7365 112.258 74.2929C111.903 74.8493 111.714 75.5033 111.715 76.1721V86.3022C111.715 86.4991 111.678 86.6941 111.605 86.876C111.533 87.0579 111.427 87.2232 111.294 87.3624C111.161 87.5016 111.002 87.612 110.828 87.6874C110.654 87.7627 110.467 87.8015 110.278 87.8015H96.6912C96.3102 87.8015 95.9449 87.6435 95.6755 87.3624C95.4061 87.0812 95.2548 86.6999 95.2548 86.3022V76.1721C95.2547 75.5039 95.0647 74.8507 94.7088 74.2953C94.3529 73.7399 93.8471 73.3072 93.2555 73.052C92.864 72.8817 92.4439 72.7944 92.0197 72.7953C91.5946 72.7945 91.1735 72.8812 90.7805 73.0504C90.3875 73.2196 90.0303 73.468 89.7293 73.7813L82.8581 80.9467C82.7247 81.086 82.5663 81.1965 82.392 81.2719C82.2177 81.3472 82.0309 81.386 81.8423 81.386C81.6536 81.386 81.4668 81.3472 81.2925 81.2719C81.1182 81.1965 80.9598 81.086 80.8265 80.9467L71.2442 70.9111C71.1108 70.7719 71.005 70.6066 70.9327 70.4247C70.8605 70.2428 70.8234 70.0478 70.8234 69.8508C70.8234 69.6539 70.8605 69.4589 70.9327 69.277C71.005 69.0951 71.1108 68.9298 71.2442 68.7906L78.109 61.6252C78.5626 61.1529 78.8716 60.5507 78.9969 59.8949C79.1223 59.239 79.0582 58.5592 78.8129 57.9414C78.5675 57.3236 78.152 56.7958 77.6189 56.4249C77.0859 56.0539 76.4593 55.8565 75.8186 55.8577H66.1134C65.7341 55.856 65.3707 55.6984 65.1019 55.419C64.8331 55.1397 64.6805 54.7611 64.6771 54.3652V40.183C64.677 39.9855 64.7144 39.79 64.787 39.6077C64.8596 39.4253 64.966 39.2597 65.1 39.1204C65.2341 38.9811 65.3932 38.8708 65.5682 38.7959C65.7432 38.7209 65.9307 38.6828 66.1199 38.6837H75.8251C76.4657 38.6849 77.0923 38.4875 77.6254 38.1166C78.1585 37.7456 78.574 37.2178 78.8193 36.6C79.0647 35.9823 79.1287 35.3024 79.0034 34.6466C78.8781 33.9907 78.5691 33.3885 78.1155 32.9163L71.2442 25.7441C71.1103 25.6053 71.0041 25.4401 70.9319 25.2581C70.8597 25.076 70.8229 24.8808 70.8237 24.6838C70.827 24.2909 70.978 23.915 71.2442 23.637L80.8523 13.6014C80.9857 13.4622 81.1441 13.3517 81.3184 13.2763C81.4927 13.201 81.6795 13.1622 81.8681 13.1622C82.0568 13.1622 82.2436 13.201 82.4179 13.2763C82.5922 13.3517 82.7506 13.4622 82.8839 13.6014L89.7552 20.7668C90.2077 21.2403 90.7846 21.5629 91.4129 21.6937C92.0412 21.8245 92.6926 21.7576 93.2844 21.5015C93.8763 21.2454 94.3819 20.8117 94.7373 20.2553C95.0927 19.6989 95.2818 19.0448 95.2807 18.3761V8.24595C95.2807 7.84832 95.432 7.46698 95.7014 7.18581C95.9708 6.90464 96.3361 6.74669 96.717 6.74669H110.304C110.685 6.74669 111.051 6.90464 111.32 7.18581C111.589 7.46698 111.741 7.84832 111.741 8.24595V18.3761C111.74 19.0448 111.929 19.6989 112.284 20.2553C112.639 20.8117 113.145 21.2454 113.737 21.5015C114.329 21.7576 114.98 21.8245 115.608 21.6937C116.237 21.5629 116.814 21.2403 117.266 20.7668L124.137 13.6014C124.271 13.4622 124.429 13.3517 124.603 13.2763C124.778 13.201 124.965 13.1622 125.153 13.1622C125.342 13.1622 125.529 13.201 125.703 13.2763C125.877 13.3517 126.036 13.4622 126.169 13.6014L135.751 23.637C135.885 23.7763 135.991 23.9416 136.063 24.1235C136.135 24.3054 136.172 24.5004 136.172 24.6973C136.172 24.8943 136.135 25.0892 136.063 25.2712C135.991 25.4531 135.885 25.6184 135.751 25.7576L128.886 32.923C128.433 33.3953 128.124 33.9975 127.999 34.6533C127.873 35.3091 127.937 35.989 128.183 36.6068C128.428 37.2245 128.843 37.7524 129.377 38.1233C129.91 38.4943 130.536 38.6917 131.177 38.6905H140.882C141.071 38.6896 141.259 38.7277 141.434 38.8026C141.609 38.8776 141.768 38.9879 141.902 39.1272C142.036 39.2665 142.142 39.4321 142.215 39.6144C142.288 39.7968 142.325 39.9923 142.325 40.1897V54.372C142.325 54.7714 142.173 55.1544 141.902 55.4369C141.632 55.7193 141.265 55.878 140.882 55.878H131.177C130.536 55.8768 129.91 56.0742 129.377 56.4451C128.843 56.8161 128.428 57.3439 128.183 57.9617C127.937 58.5794 127.873 59.2593 127.999 59.9151C128.124 60.5709 128.433 61.1731 128.886 61.6454L135.751 68.8176C135.885 68.9564 135.991 69.1216 136.064 69.3036C136.136 69.4856 136.173 69.6808 136.172 69.8779C136.165 70.2661 136.014 70.6366 135.751 70.9111ZM142.318 88.5241H140.72C139.562 88.5241 138.451 88.0438 137.632 87.1889C136.813 86.334 136.353 85.1745 136.353 83.9655C136.353 82.7565 136.813 81.597 137.632 80.7421C138.451 79.8872 139.562 79.407 140.72 79.407H142.318V88.5241ZM176.196 15.9246C180.042 15.9282 183.73 17.5246 186.449 20.3633C189.169 23.2021 190.698 27.0512 190.702 31.0658C190.682 32.6165 190.431 34.1545 189.958 35.6244H187.04V28.4185C187.04 27.64 186.782 26.8855 186.311 26.2824C185.839 25.6794 185.182 25.265 184.452 25.1093L165.346 21.1585C166.691 19.5281 168.356 18.2178 170.227 17.3161C172.099 16.4144 174.134 15.9422 176.196 15.9314V15.9246ZM161.69 31.0658C161.705 29.8227 161.868 28.5863 162.175 27.3852L180.563 31.1874V38.9944C180.563 39.8899 180.904 40.7488 181.511 41.3821C182.117 42.0153 182.94 42.3711 183.798 42.3711H185.739C183.658 44.3116 181.081 45.5804 178.323 46.0241C175.564 46.4678 172.742 46.0672 170.197 44.8709C167.652 43.6746 165.494 41.7339 163.984 39.2837C162.474 36.8336 161.677 33.9791 161.69 31.0658ZM180.563 52.4607V56.7829H172.152C172.042 56.7829 171.939 56.7829 171.829 56.7829V52.4337C174.708 53.0921 177.69 53.0921 180.57 52.4337L180.563 52.4607ZM166.193 131.955C165.878 132.317 165.642 132.746 165.501 133.213C165.36 133.679 165.318 134.172 165.378 134.657L169.713 171.004C169.711 171.58 169.491 172.132 169.101 172.54C168.71 172.947 168.182 173.177 167.629 173.178C167.174 173.164 166.736 172.997 166.379 172.703C166.021 172.408 165.763 172.002 165.643 171.544L157.336 137.324C156.98 135.869 157.061 134.334 157.568 132.928L165.727 111.162H171.285L174.63 122.285L166.193 131.955ZM173.66 104.401H166.756V86.6129C166.737 86.3298 166.683 86.0506 166.594 85.7822L175.601 78.7316C175.941 78.4656 176.227 78.1322 176.443 77.7507C176.66 77.3691 176.802 76.9468 176.862 76.5078C176.922 76.0688 176.899 75.6218 176.793 75.1922C176.688 74.7626 176.503 74.359 176.248 74.0042C175.993 73.6495 175.673 73.3506 175.308 73.1247C174.942 72.8987 174.538 72.7502 174.117 72.6875C173.697 72.6247 173.268 72.6491 172.857 72.7592C172.445 72.8692 172.058 73.0628 171.719 73.3289L152.308 88.5241H148.789V79.4137H149.584C150.32 79.4158 151.034 79.1562 151.609 78.6776L167.837 65.1234C169.063 64.1035 170.584 63.5465 172.152 63.5431H183.798C185.626 63.5467 187.379 64.3063 188.672 65.6557C189.964 67.005 190.692 68.8341 190.695 70.7423V104.395H173.666L173.66 104.401ZM199.54 172.476C199.259 172.71 198.927 172.867 198.573 172.932C198.219 172.997 197.855 172.969 197.515 172.849C197.174 172.729 196.868 172.523 196.624 172.247C196.38 171.972 196.206 171.638 196.117 171.274L178.04 111.168H191.129L199.993 170.876C200.034 171.157 200.018 171.445 199.946 171.719C199.873 171.994 199.746 172.25 199.572 172.469L199.54 172.476Z" fill="#DB7C0F"/>
</svg>
