<svg width="207" height="180" viewBox="0 0 207 180" fill="none" xmlns="http://www.w3.org/2000/svg">
<path d="M114.187 8H74.812C71.7099 8 69.187 10.4378 69.187 13.4355V108.556H49.3645C47.2439 108.556 45.3258 109.689 44.3583 111.513C43.3908 113.339 43.5595 115.505 44.7999 117.166L89.9349 177.744C90.9895 179.158 92.6939 180 94.4995 180C96.3052 180 98.0095 179.155 99.0642 177.742L144.199 117.166C145.437 115.505 145.605 113.339 144.641 111.513C143.673 109.689 141.755 108.556 139.635 108.556H119.812V105.838C119.812 104.336 118.552 103.121 117 103.121C115.447 103.121 114.187 104.336 114.187 105.838V108.556C114.187 111.554 116.71 113.992 119.812 113.992H139.635L94.4995 174.567L49.3645 113.992H69.187C72.2892 113.992 74.812 111.554 74.812 108.556V13.4355H114.187V29.8805C95.3405 31.2774 80.437 46.5103 80.437 65.0724C80.437 84.5532 96.8395 100.403 117 100.403C137.16 100.403 153.562 84.5532 153.562 65.0724C153.562 46.5103 138.659 31.2774 119.812 29.8805V13.4355C119.812 10.4378 117.289 8 114.187 8ZM147.937 65.0724C147.937 81.5555 134.057 94.9675 117 94.9675C99.9417 94.9675 86.062 81.5555 86.062 65.0724C86.062 48.5894 99.9417 35.1773 117 35.1773C134.057 35.1773 147.937 48.5894 147.937 65.0724Z" fill="#DB7C0F"/>
<path d="M114.188 43.3305V46.4342C109.35 47.649 105.75 51.8669 105.75 56.9192C105.75 62.9145 110.796 67.7901 117 67.7901C120.102 67.7901 122.625 70.2279 122.625 73.2256C122.625 76.2232 120.102 78.6611 117 78.6611C115 78.6611 113.133 77.6174 112.126 75.9406C111.35 74.6388 109.628 74.1931 108.284 74.9513C106.94 75.7014 106.481 77.3674 107.26 78.6638C108.787 81.2103 111.31 83.0176 114.19 83.7405V86.8143C114.19 88.3172 115.45 89.532 117.003 89.532C118.555 89.532 119.815 88.3172 119.815 86.8143V83.7106C124.653 82.4958 128.253 78.2779 128.253 73.2256C128.253 67.2303 123.207 62.3546 117.003 62.3546C113.901 62.3546 111.378 59.9168 111.378 56.9192C111.378 53.9215 113.901 51.4837 117.003 51.4837C119.002 51.4837 120.87 52.5246 121.877 54.2014C122.653 55.5032 124.374 55.9489 125.719 55.1907C127.063 54.4406 127.522 52.7746 126.743 51.4783C125.218 48.9318 122.692 47.1272 119.815 46.4043V43.3305C119.815 41.8276 118.555 40.6128 117.003 40.6128C115.45 40.6128 114.188 41.8276 114.188 43.3305ZM46.6875 160.193C45.135 160.193 43.875 161.408 43.875 162.911C43.875 164.414 45.135 165.629 46.6875 165.629H60.75C62.3025 165.629 63.5625 164.414 63.5625 162.911C63.5625 161.408 62.3025 160.193 60.75 160.193H46.6875ZM119.812 162.911C118.26 162.911 117 164.126 117 165.629C117 167.131 118.26 168.346 119.812 168.346H128.25C129.802 168.346 131.062 167.131 131.062 165.629C131.062 164.126 129.802 162.911 128.25 162.911H119.812ZM162 133.016H145.125C143.573 133.016 142.312 134.231 142.312 135.733C142.312 137.236 143.573 138.451 145.125 138.451H162C163.553 138.451 164.812 137.236 164.812 135.733C164.812 134.231 163.553 133.016 162 133.016ZM159.188 27.0241C160.74 27.0241 162 25.8093 162 24.3064C162 22.8035 160.74 21.5886 159.188 21.5886H142.312C140.76 21.5886 139.5 22.8035 139.5 24.3064C139.5 25.8093 140.76 27.0241 142.312 27.0241H159.188ZM35.4375 152.04C36.99 152.04 38.25 150.825 38.25 149.322C38.25 147.819 36.99 146.604 35.4375 146.604H29.8125C28.26 146.604 27 147.819 27 149.322C27 150.825 28.26 152.04 29.8125 152.04H35.4375ZM170.438 59.6369H164.812C163.26 59.6369 162 60.8517 162 62.3546C162 63.8576 163.26 65.0724 164.812 65.0724H170.438C171.99 65.0724 173.25 63.8576 173.25 62.3546C173.25 60.8517 171.99 59.6369 170.438 59.6369ZM100.125 62.3546H94.5C92.9475 62.3546 91.6875 63.5695 91.6875 65.0724C91.6875 66.5753 92.9475 67.7901 94.5 67.7901H100.125C101.677 67.7901 102.938 66.5753 102.938 65.0724C102.938 63.5695 101.677 62.3546 100.125 62.3546Z" fill="#DB7C0F"/>
</svg>
