<svg width="154" height="155" viewBox="0 0 154 155" fill="none" xmlns="http://www.w3.org/2000/svg">
<rect x="5" y="5" width="144" height="144.108" rx="15" fill="white" stroke="#DB7C0F" stroke-width="10"/>
<path d="M120.578 59.2937H92.3443V38.1962C92.3443 30.4393 86.013 24.1312 78.2276 24.1312H67.6401C66.7041 24.1312 65.8064 24.5016 65.1446 25.1611C64.4827 25.8205 64.1109 26.7148 64.1109 27.6474V44.2933L50.46 68.0984C50.1529 68.6286 49.9922 69.2303 49.9942 69.8424V119.07C49.9942 120.003 50.366 120.897 51.0278 121.556C51.6897 122.216 52.5874 122.586 53.5233 122.586H110.167C112.897 122.585 115.568 121.795 117.857 120.313C120.146 118.83 121.954 116.717 123.062 114.232L134.384 88.8513C134.588 88.4029 134.694 87.9162 134.694 87.4237V73.3587C134.694 65.6018 128.363 59.2937 120.578 59.2937ZM21.7607 69.8424V119.07C21.7607 120.003 22.1326 120.897 22.7944 121.556C23.4563 122.216 24.3539 122.586 25.2899 122.586H42.9358V66.3262H25.2899C24.3539 66.3262 23.4563 66.6966 22.7944 67.3561C22.1326 68.0155 21.7607 68.9099 21.7607 69.8424Z" fill="#DB7C0F"/>
</svg>
