<svg width="154" height="155" viewBox="0 0 154 155" fill="none" xmlns="http://www.w3.org/2000/svg">
<rect x="5" y="5" width="144" height="144.108" rx="15" fill="white" stroke="#DB7C0F" stroke-width="10"/>
<path d="M130.541 39.9628C130.204 39.5577 129.778 39.2305 129.296 39.0046C128.813 38.7787 128.285 38.6597 127.75 38.6563H115.28L115.57 36.7141C115.806 35.1958 115.701 33.6455 115.262 32.1707C114.822 30.6959 114.059 29.3318 113.024 28.1729C111.99 27.0141 110.709 26.0882 109.271 25.4594C107.832 24.8306 106.271 24.5139 104.695 24.5313H49.1596C47.5832 24.5139 46.0218 24.8306 44.5836 25.4594C43.1453 26.0882 41.8646 27.0141 40.8301 28.1729C39.7957 29.3318 39.0323 30.6959 38.5927 32.1707C38.1532 33.6455 38.0481 35.1958 38.2846 36.7141L38.7196 38.6563H26.2496C25.7142 38.6597 25.1862 38.7787 24.7036 39.0046C24.2209 39.2305 23.7957 39.5577 23.4584 39.9628C23.104 40.36 22.8452 40.8293 22.701 41.3364C22.5567 41.8435 22.5306 42.3756 22.6246 42.8938L28.7871 72.521C29.2812 74.9203 30.6127 77.079 32.5555 78.6304C34.4983 80.1818 36.9325 81.0301 39.4446 81.0313H45.9334C48.8118 88.9131 54.7643 95.3714 62.4996 99.0053V109.281H91.4996V99.0053C99.2349 95.3714 105.187 88.9131 108.066 81.0313H114.555C117.067 81.0301 119.501 80.1818 121.444 78.6304C123.387 77.079 124.718 74.9203 125.212 72.521L131.375 42.8938C131.469 42.3756 131.443 41.8435 131.298 41.3364C131.154 40.8293 130.895 40.36 130.541 39.9628ZM35.8921 71.1438L30.6721 45.7188H39.8071L44.1571 73.9688H39.4446C38.6089 73.9689 37.7989 73.6878 37.1515 73.173C36.5042 72.6582 36.0593 71.9414 35.8921 71.1438ZM118.107 71.1438C117.938 71.9534 117.482 72.6795 116.82 73.1957C116.157 73.7118 115.33 73.9854 114.482 73.9688H109.77L114.12 45.7188H123.255L118.107 71.1438ZM108.247 116.344H45.7521L41.1484 125.348C40.8703 125.886 40.7379 126.484 40.7638 127.085C40.7896 127.687 40.9729 128.272 41.2961 128.785C41.6194 129.298 42.0719 129.722 42.6107 130.017C43.1495 130.311 43.7567 130.467 44.3746 130.469H109.625C110.243 130.467 110.85 130.311 111.389 130.017C111.927 129.722 112.38 129.298 112.703 128.785C113.026 128.272 113.21 127.687 113.235 127.085C113.261 126.484 113.129 125.886 112.851 125.348L108.247 116.344Z" fill="#DB7C0F"/>
</svg>
