<svg width="154" height="155" viewBox="0 0 154 155" fill="none" xmlns="http://www.w3.org/2000/svg">
<rect x="5" y="5" width="144" height="144.108" rx="15" fill="white" stroke="#DB7C0F" stroke-width="10"/>
<path d="M86.999 81.9999H80.999V93.9999H86.999C88.5903 93.9999 90.1164 93.3677 91.2417 92.2425C92.3669 91.1173 92.999 89.5912 92.999 87.9999C92.999 86.4086 92.3669 84.8825 91.2417 83.7572C90.1164 82.632 88.5903 81.9999 86.999 81.9999ZM60.999 67.9999C60.999 69.5912 61.6312 71.1173 62.7564 72.2425C63.8816 73.3677 65.4077 73.9999 66.999 73.9999H72.999V61.9999H66.999C65.4077 61.9999 63.8816 62.632 62.7564 63.7572C61.6312 64.8825 60.999 66.4086 60.999 67.9999Z" fill="#DB7C0F"/>
<path d="M77 22C65.9243 22 55.0972 25.2843 45.8881 31.4377C36.6789 37.5911 29.5013 46.3371 25.2628 56.5697C21.0243 66.8024 19.9153 78.0621 22.076 88.925C24.2368 99.788 29.5703 109.766 37.402 117.598C45.2338 125.43 55.212 130.763 66.075 132.924C76.9379 135.085 88.1976 133.976 98.4303 129.737C108.663 125.499 117.409 118.321 123.562 109.112C129.716 99.9028 133 89.0757 133 78C132.984 63.1527 127.079 48.9182 116.58 38.4196C106.082 27.921 91.8473 22.0159 77 22ZM87 102H81V110C81 111.061 80.5786 112.078 79.8284 112.828C79.0783 113.579 78.0609 114 77 114C75.9392 114 74.9217 113.579 74.1716 112.828C73.4214 112.078 73 111.061 73 110V102H61C59.9392 102 58.9217 101.579 58.1716 100.828C57.4215 100.078 57 99.0609 57 98C57 96.9391 57.4215 95.9217 58.1716 95.1716C58.9217 94.4214 59.9392 94 61 94H73V82H67C63.287 82 59.726 80.525 57.1005 77.8995C54.475 75.274 53 71.713 53 68C53 64.287 54.475 60.726 57.1005 58.1005C59.726 55.475 63.287 54 67 54H73V46C73 44.9391 73.4214 43.9217 74.1716 43.1716C74.9217 42.4214 75.9392 42 77 42C78.0609 42 79.0783 42.4214 79.8284 43.1716C80.5786 43.9217 81 44.9391 81 46V54H93C94.0609 54 95.0783 54.4214 95.8284 55.1716C96.5786 55.9217 97 56.9391 97 58C97 59.0609 96.5786 60.0783 95.8284 60.8284C95.0783 61.5786 94.0609 62 93 62H81V74H87C90.713 74 94.274 75.475 96.8995 78.1005C99.525 80.726 101 84.287 101 88C101 91.713 99.525 95.274 96.8995 97.8995C94.274 100.525 90.713 102 87 102Z" fill="#DB7C0F"/>
</svg>
