<svg width="35" height="31" viewBox="0 0 35 31" fill="none" xmlns="http://www.w3.org/2000/svg">
<path fill-rule="evenodd" clip-rule="evenodd" d="M34.185 1.20623C34.9416 2.01098 34.9025 3.27671 34.0978 4.03331L17.1978 19.9222C16.4279 20.646 15.2278 20.646 14.4579 19.9222L9.8488 15.5889C9.04405 14.8323 9.00502 13.5665 9.76162 12.7618C10.5182 11.957 11.784 11.918 12.5887 12.6746L15.8278 15.7199L31.3579 1.11905C32.1626 0.362443 33.4284 0.401474 34.185 1.20623Z" fill="black"/>
<path fill-rule="evenodd" clip-rule="evenodd" d="M5.07273 4.57617C4.74977 4.57617 4.46298 4.69794 4.26993 4.87944C4.08106 5.05701 4 5.27052 4 5.46506V25.6873C4 25.8818 4.08106 26.0953 4.26993 26.2729C4.46298 26.4544 4.74977 26.5762 5.07273 26.5762H26.5818C26.9048 26.5762 27.1916 26.4544 27.3846 26.2729C27.5735 26.0953 27.6545 25.8818 27.6545 25.6873V15.5762C27.6545 14.4716 28.55 13.5762 29.6545 13.5762C30.7591 13.5762 31.6545 14.4716 31.6545 15.5762V25.6873C31.6545 27.0251 31.0881 28.2812 30.1245 29.1872C29.1651 30.0892 27.8887 30.5762 26.5818 30.5762H5.07273C3.7658 30.5762 2.48947 30.0892 1.53003 29.1872C0.566401 28.2812 0 27.0251 0 25.6873V5.46506C0 4.12724 0.566401 2.87115 1.53003 1.96518C2.48948 1.06313 3.7658 0.576172 5.07273 0.576172H21.9727C23.0773 0.576172 23.9727 1.4716 23.9727 2.57617C23.9727 3.68074 23.0773 4.57617 21.9727 4.57617H5.07273Z" fill="black"/>
</svg>
